<?xml version="1.0" encoding="utf-8"?>
<!-- Generator: Adobe Illustrator 17.0.0, SVG Export Plug-In . SVG Version: 6.00 Build 0)  -->
<!DOCTYPE svg PUBLIC "-//W3C//DTD SVG 1.1//EN" "http://www.w3.org/Graphics/SVG/1.1/DTD/svg11.dtd">
<svg version="1.1" id="Layer_1" xmlns="http://www.w3.org/2000/svg" xmlns:xlink="http://www.w3.org/1999/xlink" x="0px" y="0px"
	 width="56.693px" height="56.693px" viewBox="0 0 56.693 56.693" enable-background="new 0 0 56.693 56.693" xml:space="preserve">
<g>
	<path fill="#474A56" d="M45.733,29.363c1.825-2.118,3.136-4.205,3.898-6.212c0.883-2.324,0.851-4.346-0.094-5.999
		c-0.948-1.659-2.683-2.697-5.153-3.088c-2.122-0.334-4.581-0.248-7.34,0.26c-0.915-2.647-2.064-4.824-3.418-6.481
		c-1.577-1.928-3.346-2.905-5.256-2.905c-1.913,0-3.684,0.981-5.26,2.921c-1.355,1.666-2.494,3.846-3.391,6.487
		c-2.759-0.524-5.216-0.615-7.338-0.281c-2.471,0.391-4.204,1.429-5.154,3.088c-0.944,1.655-0.976,3.675-0.094,6.001
		c0.758,1.997,2.074,4.083,3.918,6.206c-1.842,2.126-3.154,4.208-3.904,6.198c-0.875,2.319-0.838,4.335,0.108,5.984
		c0.945,1.659,2.673,2.701,5.135,3.102c2.115,0.344,4.572,0.254,7.332-0.268c0.911,2.639,2.053,4.814,3.4,6.476
		c1.567,1.929,3.333,2.905,5.247,2.905c1.911,0,3.68-0.977,5.257-2.903c1.352-1.655,2.499-3.839,3.415-6.495
		c2.756,0.548,5.209,0.653,7.316,0.311c2.448-0.398,4.183-1.439,5.153-3.1c0.944-1.656,0.976-3.674,0.093-6.002
		C48.848,33.573,47.547,31.489,45.733,29.363z M13.062,41.834c-1.686-0.2-2.773-0.762-3.324-1.729
		c-0.559-0.94-0.504-2.153,0.165-3.713c0.652-1.521,1.738-3.139,3.23-4.817c1.407,1.362,2.972,2.685,4.665,3.945
		c0.219,2.028,0.574,4.012,1.062,5.916C16.648,41.891,14.699,42.025,13.062,41.834z M17.486,31.238
		c-0.785-0.631-1.504-1.258-2.151-1.875c0.659-0.621,1.376-1.238,2.142-1.848c-0.018,0.594-0.026,1.2-0.026,1.819
		C17.45,29.992,17.462,30.626,17.486,31.238z M17.798,23.224c-1.692,1.262-3.249,2.577-4.642,3.923
		c-1.513-1.684-2.61-3.305-3.269-4.825c-0.676-1.559-0.732-2.778-0.17-3.738c0.546-0.941,1.637-1.499,3.334-1.709
		c0.514-0.062,1.062-0.093,1.63-0.093c1.255,0,2.658,0.152,4.183,0.457C18.375,19.181,18.017,21.191,17.798,23.224z M35.462,20.857
		c-0.521-0.325-1.063-0.648-1.626-0.971c-0.484-0.285-1.024-0.588-1.614-0.908c0.934-0.354,1.835-0.667,2.694-0.934
		C35.128,18.972,35.309,19.914,35.462,20.857z M25.237,9.827c2.021-2.706,4.247-2.704,6.281,0.002
		c0.994,1.326,1.854,3.085,2.562,5.235c-1.779,0.502-3.685,1.188-5.684,2.047c-1.942-0.827-3.858-1.525-5.711-2.079
		C23.391,12.904,24.249,11.155,25.237,9.827z M21.87,18.052c0.874,0.278,1.763,0.589,2.658,0.932
		c-0.556,0.294-1.087,0.595-1.591,0.898c-0.566,0.325-1.108,0.647-1.624,0.971C21.47,19.901,21.656,18.963,21.87,18.052z
		 M21.321,37.883c0.522,0.324,1.048,0.63,1.567,0.915c0.507,0.314,1.06,0.629,1.65,0.943c-0.924,0.356-1.82,0.662-2.684,0.918
		C21.645,39.736,21.466,38.809,21.321,37.883z M31.519,48.876c-2.033,2.695-4.266,2.695-6.284,0.002
		c-0.984-1.313-1.834-3.068-2.528-5.225c1.914-0.543,3.823-1.236,5.689-2.063c1.87,0.839,3.776,1.532,5.685,2.065
		C33.373,45.805,32.513,47.56,31.519,48.876z M34.917,40.664c-0.87-0.256-1.768-0.562-2.69-0.918
		c0.524-0.28,1.079-0.594,1.656-0.935c0.539-0.312,1.063-0.623,1.573-0.935C35.294,38.872,35.114,39.802,34.917,40.664z
		 M35.953,33.724c-1.094,0.751-2.332,1.53-3.694,2.329c-1.221,0.729-2.518,1.418-3.862,2.045c-1.316-0.611-2.623-1.301-3.888-2.047
		c-1.442-0.864-2.676-1.653-3.671-2.349c-0.109-1.27-0.165-2.738-0.165-4.368c0-1.625,0.056-3.083,0.164-4.337
		c1.08-0.739,2.328-1.528,3.706-2.344c1.24-0.704,2.535-1.384,3.853-2.023c1.312,0.645,2.607,1.322,3.837,2.011
		c1.291,0.776,2.541,1.562,3.722,2.341c0.109,1.28,0.164,2.742,0.164,4.351C36.118,30.964,36.063,32.44,35.953,33.724z
		 M43.716,16.887c1.674,0.197,2.795,0.769,3.331,1.69c0.548,0.96,0.486,2.186-0.186,3.748c-0.649,1.517-1.742,3.137-3.256,4.825
		c-1.426-1.368-2.974-2.669-4.614-3.878c-0.231-2.095-0.594-4.102-1.083-5.989C40.124,16.828,42.076,16.694,43.716,16.887z
		 M39.307,27.523c0.777,0.637,1.488,1.254,2.123,1.848c-0.432,0.417-0.883,0.829-1.349,1.229c-0.254,0.22-0.512,0.438-0.773,0.66
		c0.022-0.672,0.034-1.313,0.034-1.925C39.342,28.779,39.331,28.173,39.307,27.523z M47.024,40.136
		c-0.54,0.931-1.657,1.506-3.322,1.71c-0.489,0.06-1.013,0.089-1.554,0.089c-1.268,0-2.695-0.166-4.251-0.494
		c0.479-1.908,0.835-3.901,1.067-5.943c1.685-1.25,3.241-2.565,4.64-3.92c1.496,1.698,2.581,3.324,3.233,4.84
		C47.507,37.98,47.569,39.197,47.024,40.136z"/>
	<circle fill="#474A56" cx="28.315" cy="29.347" r="2.645"/>
</g>
</svg>
