<?xml version="1.0" encoding="utf-8"?>
<!-- Generator: Adobe Illustrator 19.1.0, SVG Export Plug-In . SVG Version: 6.00 Build 0)  -->
<!DOCTYPE svg PUBLIC "-//W3C//DTD SVG 1.1//EN" "http://www.w3.org/Graphics/SVG/1.1/DTD/svg11.dtd">
<svg version="1.1" id="Layer_1" xmlns="http://www.w3.org/2000/svg" xmlns:xlink="http://www.w3.org/1999/xlink" x="0px" y="0px"
	 viewBox="-451 252.3 56.7 56.7" style="enable-background:new -451 252.3 56.7 56.7;" xml:space="preserve">
<style type="text/css">
	.st0{fill:#990000;}
</style>
<path class="st0" d="M-422.8,257.8c-7.7,0-14,6.2-14,13.8c0,3.9,1.6,8.1,4.4,11.3l0.1,0.1c0.8,1,3.2,4.4,3.2,6.7
	c0,0.9,0.8,1.7,1.7,1.7h9.3l0,0c0.2,0,0.5,0,0.7-0.1c0.6-0.3,1-0.9,1-1.6c0-2,2-5.1,3.2-6.7c0.1-0.1,0.1-0.2,0.2-0.3
	c2.6-3.2,4.2-7.4,4.2-11.2C-408.8,263.9-415.1,257.8-422.8,257.8z M-415.9,280.8c-0.1,0.1-0.2,0.2-0.2,0.4c-0.8,1-2.8,3.9-3.5,6.8
	h-6.3c-0.7-3.1-3-6.1-3.6-6.9c0-0.1-0.1-0.1-0.2-0.2c-2.3-2.6-3.6-6.2-3.6-9.3c0-5.7,4.7-10.4,10.6-10.4c5.8,0,10.6,4.6,10.6,10.4
	C-412.1,274.6-413.6,278.2-415.9,280.8z"/>
<g>
	<path class="st0" d="M-406.2,268.6c0,0.2,0.1,0.4,0.1,0.7c0.2,0,0.3-0.1,0.5-0.2l6.1-4.3c0.3-0.2,0.4-0.5,0.5-0.8s0-0.6-0.2-0.9
		c-0.4-0.5-1.2-0.7-1.7-0.3l-5.8,4c0.1,0.2,0.1,0.5,0.2,0.7C-406.5,267.8-406.4,268.2-406.2,268.6z"/>
	<path class="st0" d="M-398.2,274.4c-0.2-0.3-0.5-0.4-0.8-0.5l-7-1.2c0,0.2,0,0.5-0.1,0.7c0,0.4-0.1,0.7-0.1,1.1
		c0,0.2-0.1,0.5-0.1,0.7l6.9,1.2c0.1,0,0.1,0,0.2,0c0.6,0,1.1-0.4,1.2-1C-398,275-398.1,274.7-398.2,274.4z"/>
	<path class="st0" d="M-406.6,278.4c-0.1-0.2-0.4-0.3-0.6-0.4c-0.1,0.2-0.2,0.4-0.2,0.6c-0.1,0.4-0.3,0.7-0.4,1
		c-0.1,0.2-0.2,0.5-0.3,0.7l3.9,5.6c0.2,0.3,0.5,0.4,0.8,0.5c0.1,0,0.1,0,0.2,0c0.3,0,0.5-0.1,0.7-0.2c0.3-0.2,0.4-0.5,0.5-0.8
		s0-0.6-0.2-0.9L-406.6,278.4z"/>
	<path class="st0" d="M-445.6,264.7l6.1,4.3c0.1,0.1,0.2,0.1,0.2,0.1c0-0.2,0.1-0.5,0.1-0.7c0.1-0.4,0.2-0.8,0.3-1.1
		c0.1-0.2,0.1-0.5,0.2-0.7l-5.6-3.9c-0.5-0.4-1.3-0.2-1.7,0.3c-0.2,0.3-0.3,0.6-0.2,0.9C-446.1,264.3-446,264.5-445.6,264.7z"/>
	<path class="st0" d="M-439.2,274.5c-0.1-0.4-0.1-0.7-0.1-1.1c0-0.2,0-0.5-0.1-0.7l-6.8,1.2c-0.3,0.1-0.6,0.2-0.8,0.5
		c-0.2,0.3-0.3,0.6-0.2,0.9c0.1,0.6,0.6,1,1.2,1c0.1,0,0.1,0,0.2,0l6.7-1.2C-439.1,274.9-439.1,274.7-439.2,274.5z"/>
	<path class="st0" d="M-438.1,278.7c-0.1-0.2-0.2-0.4-0.2-0.7c-0.2,0.1-0.3,0.2-0.4,0.3l-4.3,6.1c-0.2,0.3-0.3,0.6-0.2,0.9
		c0.1,0.3,0.2,0.6,0.5,0.8c0.2,0.1,0.4,0.2,0.7,0.2c0.1,0,0.1,0,0.2,0c0.3-0.1,0.6-0.2,0.8-0.5l3.8-5.4c-0.1-0.2-0.2-0.5-0.3-0.7
		C-437.8,279.5-437.9,279.1-438.1,278.7z"/>
	<path class="st0" d="M-418.9,294.2h-7.7c-0.8,0-1.4,0.6-1.4,1.4v5.3c0,0.8,0.6,1.4,1.4,1.4h1.3l0.7,0.8c0.3,0.3,0.6,0.5,1,0.5h1.7
		c0.4,0,0.8-0.2,1-0.5l0.7-0.8h1.3c0.8,0,1.4-0.6,1.4-1.4v-5.3C-417.6,294.9-418.1,294.2-418.9,294.2z"/>
	<polygon class="st0" points="-422.6,259.8 -433.3,263.8 -434.8,270.1 -432.7,278 -429.7,282.2 -428.7,288 -423.7,289 -419.8,289 
		-412.1,278.6 -411,268.1 -417.5,259.8 	"/>
</g>
</svg>
