<?xml version="1.0" encoding="UTF-8" standalone="no"?>
<!DOCTYPE svg PUBLIC "-//W3C//DTD SVG 20010904//EN"
              "http://www.w3.org/TR/2001/REC-SVG-20010904/DTD/svg10.dtd">

<svg xmlns="http://www.w3.org/2000/svg"
     width="35.4333in" height="35.4333in"
     viewBox="0 0 10630 10630">
  <rect width="100%" height="100%" fill="#efefef"/>
  <path id="Selección"
        fill="#cdcdcd" stroke="black" stroke-width="1"
        d="M 3568.27,2098.00
           C 3551.92,2078.92 3534.68,2060.65 3516.00,2043.83
             3487.81,2018.46 3461.01,1998.61 3427.00,1981.60
             3407.24,1971.72 3390.33,1965.48 3369.00,1959.88
             3319.41,1946.87 3266.58,1949.13 3217.00,1960.88
             3184.68,1968.55 3153.25,1980.19 3122.00,1991.31
             3122.00,1991.31 3058.00,2013.34 3058.00,2013.34
             3058.00,2013.34 2979.00,2039.98 2979.00,2039.98
             2919.71,2058.40 2860.68,2076.02 2800.00,2089.42
             2768.14,2096.46 2737.48,2101.74 2705.00,2104.96
             2705.00,2104.96 2696.00,2104.96 2696.00,2104.96
             2696.00,2104.96 2684.00,2106.00 2684.00,2106.00
             2684.00,2106.00 2644.00,2106.00 2644.00,2106.00
             2644.00,2106.00 2633.00,2105.09 2633.00,2105.09
             2594.75,2102.47 2557.43,2095.59 2521.00,2083.33
             2493.01,2073.91 2464.31,2060.36 2439.00,2045.20
             2411.10,2028.49 2379.08,2004.81 2356.00,1982.00
             2356.00,1982.00 2331.09,1957.00 2331.09,1957.00
             2306.28,1930.38 2279.84,1895.92 2260.58,1865.00
             2228.92,1814.17 2205.39,1767.19 2197.28,1707.00
             2195.93,1696.99 2195.05,1687.10 2195.00,1677.00
             2195.00,1677.00 2194.18,1664.00 2194.18,1664.00
             2194.18,1664.00 2195.00,1647.00 2195.00,1647.00
             2195.28,1622.96 2205.03,1583.67 2213.58,1561.00
             2234.76,1504.84 2272.21,1452.88 2316.00,1412.09
             2345.23,1384.86 2377.22,1361.68 2410.00,1338.98
             2410.00,1338.98 2473.00,1295.34 2473.00,1295.34
             2542.26,1248.22 2613.55,1203.47 2686.00,1161.42
             2819.86,1083.74 2952.95,1018.41 3097.00,961.80
             3235.21,907.48 3404.84,858.55 3552.00,838.72
             3590.00,833.60 3627.76,828.58 3666.00,825.91
             3666.00,825.91 3693.00,824.00 3693.00,824.00
             3693.00,824.00 3711.00,823.00 3711.00,823.00
             3711.00,823.00 3726.00,822.00 3726.00,822.00
             3726.00,822.00 3740.00,822.00 3740.00,822.00
             3740.00,822.00 3756.00,821.00 3756.00,821.00
             3756.00,821.00 3824.00,821.00 3824.00,821.00
             3824.00,821.00 3839.00,822.00 3839.00,822.00
             3839.00,822.00 3853.00,822.00 3853.00,822.00
             3853.00,822.00 3863.00,822.96 3863.00,822.96
             3863.00,822.96 3872.00,822.96 3872.00,822.96
             3872.00,822.96 3882.00,824.00 3882.00,824.00
             3882.00,824.00 3891.00,824.00 3891.00,824.00
             3891.00,824.00 3943.00,828.83 3943.00,828.83
             4034.26,837.96 4126.60,856.72 4214.00,884.66
             4264.61,900.83 4314.65,919.17 4363.00,941.31
             4469.30,989.99 4566.69,1048.50 4659.00,1120.42
             4800.95,1231.02 4926.32,1366.21 5031.58,1512.00
             5162.54,1693.39 5282.70,1911.27 5373.14,2116.00
             5401.75,2180.75 5428.63,2246.51 5452.95,2313.00
             5452.95,2313.00 5471.31,2364.00 5471.31,2364.00
             5480.67,2390.31 5488.97,2417.33 5502.31,2442.00
             5513.91,2463.44 5527.61,2482.21 5550.00,2493.24
             5556.41,2496.40 5562.82,2498.79 5570.00,2499.33
             5573.76,2499.62 5583.98,2498.78 5588.00,2498.28
             5616.67,2494.75 5621.47,2491.32 5648.00,2482.67
             5648.00,2482.67 5716.00,2464.37 5716.00,2464.37
             5767.69,2451.62 5821.11,2444.12 5874.00,2438.83
             5874.00,2438.83 5925.00,2434.96 5925.00,2434.96
             5925.00,2434.96 5943.00,2434.00 5943.00,2434.00
             5943.00,2434.00 5959.00,2433.00 5959.00,2433.00
             5959.00,2433.00 6043.00,2433.00 6043.00,2433.00
             6043.00,2433.00 6055.00,2433.96 6055.00,2433.96
             6055.00,2433.96 6067.00,2433.96 6067.00,2433.96
             6067.00,2433.96 6093.00,2435.91 6093.00,2435.91
             6093.00,2435.91 6139.00,2439.83 6139.00,2439.83
             6194.83,2445.41 6250.39,2454.93 6305.00,2467.88
             6305.00,2467.88 6379.00,2487.72 6379.00,2487.72
             6385.89,2489.79 6409.70,2497.90 6415.00,2497.92
             6420.49,2497.95 6444.63,2492.94 6451.00,2491.37
             6478.08,2484.72 6500.42,2477.44 6526.00,2466.14
             6590.00,2437.87 6650.98,2392.44 6702.00,2344.91
             6735.74,2313.48 6766.85,2279.37 6802.00,2249.43
             6892.79,2172.10 6992.64,2117.46 7104.00,2075.95
             7190.59,2043.68 7296.37,2012.63 7382.00,2064.00
             7382.00,2064.00 7370.86,2088.00 7370.86,2088.00
             7370.86,2088.00 7337.31,2158.00 7337.31,2158.00
             7337.31,2158.00 7303.31,2230.00 7303.31,2230.00
             7303.31,2230.00 7240.31,2366.00 7240.31,2366.00
             7186.94,2482.23 7135.62,2599.52 7087.40,2718.00
             7060.22,2784.76 7021.88,2883.55 7003.88,2952.00
             6989.50,3006.74 6977.89,3107.11 6970.85,3166.00
             6970.85,3166.00 6959.83,3264.00 6959.83,3264.00
             6959.83,3264.00 6955.00,3314.00 6955.00,3314.00
             6955.00,3314.00 6995.00,3312.00 6995.00,3312.00
             6995.00,3312.00 7012.00,3311.00 7012.00,3311.00
             7012.00,3311.00 7027.00,3310.00 7027.00,3310.00
             7027.00,3310.00 7068.00,3308.00 7068.00,3308.00
             7068.00,3308.00 7082.00,3307.00 7082.00,3307.00
             7082.00,3307.00 7122.00,3305.00 7122.00,3305.00
             7122.00,3305.00 7132.00,3304.04 7132.00,3304.04
             7132.00,3304.04 7140.00,3304.04 7140.00,3304.04
             7140.00,3304.04 7158.00,3303.00 7158.00,3303.00
             7158.00,3303.00 7168.00,3302.00 7168.00,3302.00
             7168.00,3302.00 7178.00,3302.00 7178.00,3302.00
             7178.00,3302.00 7194.00,3301.00 7194.00,3301.00
             7194.00,3301.00 7204.00,3300.04 7204.00,3300.04
             7204.00,3300.04 7212.00,3300.04 7212.00,3300.04
             7212.00,3300.04 7230.00,3299.00 7230.00,3299.00
             7230.00,3299.00 7244.00,3298.00 7244.00,3298.00
             7244.00,3298.00 7284.00,3296.00 7284.00,3296.00
             7284.00,3296.00 7298.00,3295.00 7298.00,3295.00
             7298.00,3295.00 7337.00,3293.00 7337.00,3293.00
             7337.00,3293.00 7347.00,3292.04 7347.00,3292.04
             7347.00,3292.04 7356.00,3292.04 7356.00,3292.04
             7356.00,3292.04 7374.00,3291.00 7374.00,3291.00
             7374.00,3291.00 7384.00,3290.04 7384.00,3290.04
             7384.00,3290.04 7393.00,3290.04 7393.00,3290.04
             7393.00,3290.04 7410.00,3289.00 7410.00,3289.00
             7410.00,3289.00 7420.00,3288.04 7420.00,3288.04
             7420.00,3288.04 7428.00,3288.04 7428.00,3288.04
             7428.00,3288.04 7446.00,3287.00 7446.00,3287.00
             7446.00,3287.00 7460.00,3286.00 7460.00,3286.00
             7460.00,3286.00 7500.00,3284.00 7500.00,3284.00
             7500.00,3284.00 7510.00,3283.04 7510.00,3283.04
             7510.00,3283.04 7518.00,3283.04 7518.00,3283.04
             7518.00,3283.04 7537.00,3282.00 7537.00,3282.00
             7537.00,3282.00 7547.00,3281.00 7547.00,3281.00
             7547.00,3281.00 7557.00,3281.00 7557.00,3281.00
             7557.00,3281.00 7572.00,3280.00 7572.00,3280.00
             7572.00,3280.00 7589.00,3279.00 7589.00,3279.00
             7589.00,3279.00 7604.00,3278.00 7604.00,3278.00
             7604.00,3278.00 7644.00,3276.00 7644.00,3276.00
             7644.00,3276.00 7654.00,3275.00 7654.00,3275.00
             7654.00,3275.00 7665.00,3275.00 7665.00,3275.00
             7665.00,3275.00 7680.00,3274.00 7680.00,3274.00
             7680.00,3274.00 7695.00,3273.00 7695.00,3273.00
             7695.00,3273.00 7735.00,3271.00 7735.00,3271.00
             7735.00,3271.00 7752.00,3270.00 7752.00,3270.00
             7752.00,3270.00 7767.00,3269.00 7767.00,3269.00
             7767.00,3269.00 7805.00,3267.00 7805.00,3267.00
             7805.00,3267.00 7821.00,3266.00 7821.00,3266.00
             7821.00,3266.00 7861.00,3264.00 7861.00,3264.00
             7861.00,3264.00 7871.00,3263.04 7871.00,3263.04
             7871.00,3263.04 7879.00,3263.04 7879.00,3263.04
             7879.00,3263.04 7897.00,3262.00 7897.00,3262.00
             7897.00,3262.00 7907.00,3261.04 7907.00,3261.04
             7907.00,3261.04 7915.00,3261.04 7915.00,3261.04
             7915.00,3261.04 7933.00,3260.00 7933.00,3260.00
             7933.00,3260.00 7947.00,3259.00 7947.00,3259.00
             7947.00,3259.00 7987.00,3257.00 7987.00,3257.00
             7987.00,3257.00 8001.00,3256.00 8001.00,3256.00
             8001.00,3256.00 8023.00,3255.00 8023.00,3255.00
             8023.00,3255.00 8038.00,3254.00 8038.00,3254.00
             8038.00,3254.00 8054.00,3253.00 8054.00,3253.00
             8054.00,3253.00 8077.00,3252.00 8077.00,3252.00
             8077.00,3252.00 8091.00,3251.00 8091.00,3251.00
             8091.00,3251.00 8108.00,3250.01 8108.00,3250.01
             8112.01,3249.96 8125.53,3248.78 8127.99,3250.01
             8132.70,3252.41 8137.85,3261.28 8140.24,3266.00
             8149.41,3284.07 8149.23,3298.39 8149.00,3318.00
             8148.71,3342.22 8138.31,3378.56 8131.02,3402.00
             8113.38,3458.77 8089.63,3513.76 8061.31,3566.00
             7965.14,3743.41 7825.29,3878.37 7677.00,4011.83
             7650.12,4036.03 7622.24,4059.01 7594.00,4081.60
             7594.00,4081.60 7542.00,4124.00 7542.00,4124.00
             7549.90,4126.25 7558.52,4131.99 7566.00,4135.75
             7566.00,4135.75 7618.00,4162.69 7618.00,4162.69
             7618.00,4162.69 7686.00,4197.26 7686.00,4197.26
             7686.00,4197.26 7759.00,4234.75 7759.00,4234.75
             7759.00,4234.75 7866.00,4289.74 7866.00,4289.74
             7866.00,4289.74 8068.00,4395.69 8068.00,4395.69
             8068.00,4395.69 8182.00,4458.58 8182.00,4458.58
             8206.26,4472.32 8230.26,4486.08 8253.00,4502.29
             8311.22,4543.79 8364.41,4598.96 8385.28,4669.00
             8393.19,4695.55 8395.32,4718.49 8395.00,4746.00
             8395.00,4746.00 8394.09,4756.00 8394.09,4756.00
             8392.38,4780.37 8387.06,4803.83 8379.33,4827.00
             8355.97,4897.09 8311.80,4961.10 8243.00,4992.69
             8213.95,5006.03 8182.84,5013.76 8151.00,5016.09
             8151.00,5016.09 8139.00,5017.00 8139.00,5017.00
             8139.00,5017.00 8102.00,5017.00 8102.00,5017.00
             8102.00,5017.00 8064.00,5013.13 8064.00,5013.13
             8055.85,5012.00 8038.26,5009.40 8031.00,5007.00
             8040.10,5028.12 8051.75,5048.77 8062.69,5069.00
             8062.69,5069.00 8082.26,5107.00 8082.26,5107.00
             8099.49,5140.39 8116.09,5174.26 8128.00,5210.00
             8136.28,5234.84 8142.26,5259.85 8144.09,5286.00
             8144.09,5286.00 8145.00,5296.00 8145.00,5296.00
             8145.63,5349.93 8130.77,5393.47 8098.85,5437.00
             8085.00,5455.88 8071.41,5469.59 8055.00,5486.00
             7998.10,5542.90 7927.20,5587.56 7849.00,5608.12
             7824.43,5614.57 7799.25,5618.43 7774.00,5620.96
             7774.00,5620.96 7764.00,5620.96 7764.00,5620.96
             7764.00,5620.96 7752.00,5622.00 7752.00,5622.00
             7752.00,5622.00 7728.00,5622.00 7728.00,5622.00
             7728.00,5622.00 7709.00,5621.00 7709.00,5621.00
             7709.00,5621.00 7666.00,5616.27 7666.00,5616.27
             7633.22,5611.55 7600.48,5603.59 7569.00,5593.33
             7569.00,5593.33 7525.00,5577.58 7525.00,5577.58
             7525.00,5577.58 7506.00,5570.00 7506.00,5570.00
             7506.00,5570.00 7518.00,5605.00 7518.00,5605.00
             7518.00,5605.00 7511.00,5598.00 7511.00,5598.00
             7511.00,5598.00 7539.58,5700.00 7539.58,5700.00
             7539.58,5700.00 7608.58,5944.00 7608.58,5944.00
             7608.58,5944.00 7784.57,6566.00 7784.57,6566.00
             7784.57,6566.00 7911.43,7015.00 7911.43,7015.00
             7911.43,7015.00 8017.42,7389.00 8017.42,7389.00
             8017.42,7389.00 8062.58,7548.00 8062.58,7548.00
             8062.58,7548.00 8189.58,7997.00 8189.58,7997.00
             8189.58,7997.00 8260.58,8248.00 8260.58,8248.00
             8260.58,8248.00 8325.29,8477.00 8325.29,8477.00
             8325.29,8477.00 8391.42,8711.00 8391.42,8711.00
             8391.42,8711.00 8412.42,8785.00 8412.42,8785.00
             8412.42,8785.00 8417.61,8803.00 8417.61,8803.00
             8417.61,8803.00 8420.98,8813.00 8420.98,8813.00
             8429.64,8850.44 8433.79,8889.00 8439.27,8927.00
             8439.27,8927.00 8445.27,8969.00 8445.27,8969.00
             8445.27,8969.00 8449.00,9000.00 8449.00,9000.00
             8449.00,9000.00 8449.00,9066.00 8449.00,9066.00
             8449.00,9066.00 8450.00,9081.00 8450.00,9081.00
             8450.00,9081.00 8450.00,9096.00 8450.00,9096.00
             8450.00,9096.00 8451.00,9111.00 8451.00,9111.00
             8451.00,9111.00 8452.26,9161.00 8452.26,9161.00
             8452.26,9161.00 8450.09,9190.00 8450.09,9190.00
             8448.14,9218.39 8445.95,9242.42 8434.57,9269.00
             8428.24,9283.81 8417.87,9300.22 8406.91,9312.00
             8378.36,9342.69 8326.30,9366.93 8284.00,9367.00
             8284.00,9367.00 8268.00,9367.00 8268.00,9367.00
             8251.40,9366.80 8229.77,9361.59 8214.00,9356.33
             8167.50,9340.83 8127.44,9311.47 8089.00,9281.88
             8053.29,9254.39 8018.88,9224.98 7985.00,9195.28
             7917.45,9136.07 7852.68,9074.11 7787.00,9012.91
             7787.00,9012.91 7758.00,8985.09 7758.00,8985.09
             7758.00,8985.09 7719.00,8948.91 7719.00,8948.91
             7705.63,8936.45 7692.62,8924.18 7678.00,8913.13
             7660.80,8900.13 7634.14,8884.26 7612.00,8884.00
             7581.07,8883.64 7563.68,8904.52 7552.28,8931.00
             7542.99,8952.58 7538.77,8975.83 7535.72,8999.00
             7535.72,8999.00 7525.58,9080.00 7525.58,9080.00
             7525.58,9080.00 7515.83,9168.00 7515.83,9168.00
             7515.83,9168.00 7495.17,9379.00 7495.17,9379.00
             7495.17,9379.00 7486.17,9476.00 7486.17,9476.00
             7483.51,9502.60 7480.33,9529.65 7471.31,9555.00
             7465.69,9570.78 7458.22,9585.02 7447.54,9598.00
             7429.27,9620.19 7401.55,9633.38 7374.00,9639.65
             7365.91,9641.49 7358.34,9642.99 7350.00,9643.00
             7350.00,9643.00 7330.00,9643.00 7330.00,9643.00
             7314.27,9642.81 7293.17,9636.01 7279.00,9629.30
             7242.53,9612.01 7216.65,9586.24 7190.73,9556.00
             7119.65,9473.06 7056.35,9384.11 6988.00,9299.00
             6980.38,9289.52 6972.61,9280.28 6966.05,9270.00
             6954.12,9251.28 6937.83,9222.21 6922.99,9207.00
             6910.39,9194.09 6896.97,9183.23 6878.00,9183.00
             6878.00,9183.00 6874.00,9183.00 6874.00,9183.00
             6866.10,9183.01 6863.53,9183.70 6856.00,9185.86
             6805.52,9200.32 6792.00,9259.51 6780.87,9304.00
             6780.87,9304.00 6773.57,9332.00 6773.57,9332.00
             6773.57,9332.00 6746.42,9426.00 6746.42,9426.00
             6717.84,9528.78 6690.75,9631.74 6657.00,9733.00
             6648.66,9758.02 6639.44,9782.53 6625.42,9805.00
             6616.65,9819.07 6604.02,9833.64 6589.00,9841.19
             6578.41,9846.52 6567.70,9848.13 6556.00,9848.00
             6527.74,9847.67 6495.34,9827.93 6473.00,9812.00
             6473.00,9812.00 6425.00,9773.42 6425.00,9773.42
             6425.00,9773.42 6332.00,9695.27 6332.00,9695.27
             6332.00,9695.27 6241.00,9613.91 6241.00,9613.91
             6241.00,9613.91 6226.00,9599.04 6226.00,9599.04
             6226.00,9599.04 6216.00,9589.99 6216.00,9589.99
             6216.00,9589.99 6193.96,9567.00 6193.96,9567.00
             6157.31,9528.68 6123.47,9488.68 6094.69,9444.00
             6034.56,9350.65 5999.07,9235.71 5974.35,9128.00
             5974.35,9128.00 5954.58,9041.00 5954.58,9041.00
             5954.58,9041.00 5945.00,8993.00 5945.00,8993.00
             5939.24,8994.08 5934.20,8997.15 5929.00,8999.75
             5929.00,8999.75 5903.00,9013.14 5903.00,9013.14
             5867.86,9032.75 5835.54,9055.53 5806.00,9082.91
             5715.52,9166.78 5668.06,9268.32 5629.00,9383.00
             5629.00,9383.00 5603.58,9464.00 5603.58,9464.00
             5603.58,9464.00 5590.37,9511.00 5590.37,9511.00
             5577.47,9562.64 5569.70,9615.96 5551.05,9666.00
             5534.53,9710.33 5512.21,9746.28 5470.00,9770.28
             5456.81,9777.78 5442.68,9783.26 5428.00,9787.12
             5413.20,9791.01 5390.18,9794.98 5375.00,9795.00
             5375.00,9795.00 5355.00,9795.99 5355.00,9795.99
             5355.00,9795.99 5337.00,9795.00 5337.00,9795.00
             5319.36,9794.79 5291.13,9789.30 5274.00,9784.42
             5209.80,9766.12 5154.91,9728.91 5108.00,9682.00
             5084.07,9658.07 5064.31,9634.65 5043.58,9608.00
             4976.66,9521.98 4933.71,9430.75 4915.75,9323.00
             4912.03,9300.68 4909.45,9278.54 4907.91,9256.00
             4907.91,9256.00 4907.00,9246.00 4907.00,9246.00
             4907.00,9246.00 4906.00,9226.00 4906.00,9226.00
             4906.00,9226.00 4906.00,9179.00 4906.00,9179.00
             4906.00,9154.99 4906.85,9132.82 4902.39,9109.00
             4898.88,9090.30 4892.73,9068.47 4879.83,9054.00
             4854.20,9025.25 4820.44,9027.79 4787.00,9039.69
             4757.58,9050.16 4728.90,9067.40 4703.00,9084.67
             4675.07,9103.29 4648.20,9123.21 4622.00,9144.20
             4499.63,9242.24 4399.33,9363.78 4292.91,9478.00
             4292.91,9478.00 4279.04,9492.00 4279.04,9492.00
             4279.04,9492.00 4269.99,9502.00 4269.99,9502.00
             4269.99,9502.00 4251.00,9520.04 4251.00,9520.04
             4206.22,9562.87 4156.60,9602.80 4097.00,9622.67
             4077.43,9629.19 4049.58,9635.76 4029.00,9636.00
             4029.00,9636.00 4001.00,9636.00 4001.00,9636.00
             3982.14,9635.97 3950.29,9629.71 3932.00,9624.28
             3900.82,9615.02 3872.92,9603.56 3846.00,9584.98
             3832.98,9575.98 3822.15,9566.15 3811.00,9555.00
             3751.77,9495.77 3721.30,9413.27 3707.75,9332.00
             3707.75,9332.00 3701.91,9282.00 3701.91,9282.00
             3701.91,9282.00 3701.00,9272.00 3701.00,9272.00
             3701.00,9272.00 3700.00,9251.00 3700.00,9251.00
             3700.00,9251.00 3700.00,9216.00 3700.00,9216.00
             3700.00,9216.00 3701.00,9196.00 3701.00,9196.00
             3701.00,9196.00 3701.91,9186.00 3701.91,9186.00
             3701.91,9186.00 3708.59,9128.00 3708.59,9128.00
             3712.11,9107.01 3715.72,9086.07 3723.05,9066.00
             3739.45,9021.14 3763.39,8987.39 3768.17,8938.00
             3768.17,8938.00 3769.00,8929.00 3769.00,8929.00
             3769.13,8917.85 3767.55,8906.87 3765.21,8896.00
             3764.55,8892.96 3763.49,8885.71 3760.58,8884.19
             3758.42,8883.06 3754.24,8884.66 3752.00,8885.29
             3752.00,8885.29 3732.00,8890.63 3732.00,8890.63
             3698.63,8899.08 3677.42,8908.93 3647.00,8924.25
             3647.00,8924.25 3600.00,8950.42 3600.00,8950.42
             3555.62,8976.18 3503.22,9008.38 3454.00,9022.42
             3423.02,9031.26 3387.95,9033.41 3358.00,9019.69
             3343.91,9013.24 3336.85,9008.41 3325.00,8998.41
             3314.36,8989.43 3301.18,8973.89 3293.81,8962.00
             3281.42,8942.01 3274.73,8918.52 3275.00,8895.00
             3275.00,8895.00 3275.83,8886.00 3275.83,8886.00
             3278.76,8855.80 3287.28,8833.94 3300.75,8807.00
             3324.73,8759.04 3367.53,8705.46 3400.13,8662.00
             3400.13,8662.00 3442.00,8603.00 3442.00,8603.00
             3442.00,8603.00 3461.51,8572.00 3461.51,8572.00
             3461.51,8572.00 3491.45,8531.00 3491.45,8531.00
             3543.90,8465.43 3606.70,8408.30 3651.95,8337.00
             3666.37,8314.27 3680.43,8288.11 3690.19,8263.00
             3690.19,8263.00 3701.98,8229.00 3701.98,8229.00
             3701.98,8229.00 3707.00,8212.00 3707.00,8212.00
             3707.00,8212.00 3644.00,8229.02 3644.00,8229.02
             3610.94,8239.30 3578.14,8253.19 3547.00,8268.26
             3447.80,8316.27 3360.24,8384.78 3271.00,8448.58
             3271.00,8448.58 3171.00,8519.42 3171.00,8519.42
             3171.00,8519.42 3067.00,8595.15 3067.00,8595.15
             2924.63,8698.97 2775.34,8803.27 2611.00,8869.20
             2611.00,8869.20 2537.00,8896.33 2537.00,8896.33
             2537.00,8896.33 2493.00,8911.19 2493.00,8911.19
             2421.74,8933.69 2332.86,8962.97 2265.00,8915.41
             2254.40,8907.98 2247.34,8901.84 2238.87,8892.00
             2228.48,8879.93 2217.61,8864.42 2210.78,8850.00
             2199.53,8826.24 2196.70,8809.98 2197.00,8784.00
             2197.33,8755.84 2212.39,8725.91 2227.67,8703.00
             2261.72,8651.95 2312.28,8611.69 2353.91,8567.00
             2353.91,8567.00 2424.91,8493.00 2424.91,8493.00
             2424.91,8493.00 2522.91,8388.00 2522.91,8388.00
             2522.91,8388.00 2598.17,8305.00 2598.17,8305.00
             2670.00,8225.19 2740.28,8144.03 2809.58,8062.00
             2885.21,7972.47 2959.32,7881.40 3031.42,7789.00
             3100.30,7700.73 3168.67,7612.13 3235.12,7522.00
             3423.01,7267.11 3601.46,7005.39 3771.05,6738.00
             3858.86,6599.55 3944.98,6460.02 4028.60,6319.00
             4028.60,6319.00 4109.42,6182.00 4109.42,6182.00
             4133.42,6140.66 4157.34,6099.49 4177.31,6056.00
             4177.31,6056.00 4192.14,6024.00 4192.14,6024.00
             4220.94,5958.82 4243.85,5891.12 4261.11,5822.00
             4302.05,5658.03 4306.31,5477.80 4282.27,5311.00
             4274.65,5258.14 4265.00,5206.13 4253.42,5154.00
             4253.42,5154.00 4242.87,5110.00 4242.87,5110.00
             4241.15,5103.11 4239.41,5092.94 4236.00,5087.00
             4236.00,5087.00 4225.42,5139.00 4225.42,5139.00
             4225.42,5139.00 4207.40,5229.00 4207.40,5229.00
             4185.36,5339.17 4164.91,5451.68 4114.25,5553.00
             4092.41,5596.67 4061.62,5638.42 4017.00,5660.73
             3991.89,5673.29 3961.88,5678.32 3934.00,5678.00
             3934.00,5678.00 3924.00,5677.09 3924.00,5677.09
             3892.84,5674.95 3863.67,5668.35 3834.00,5658.67
             3787.43,5643.47 3742.77,5623.13 3699.00,5601.25
             3549.97,5526.73 3397.12,5420.37 3346.72,5253.00
             3338.60,5226.05 3333.84,5198.03 3331.91,5170.00
             3331.91,5170.00 3331.00,5158.00 3331.00,5158.00
             3331.00,5158.00 3331.00,5115.00 3331.00,5115.00
             3331.00,5115.00 3331.91,5105.00 3331.91,5105.00
             3334.19,5071.90 3339.68,5039.12 3348.12,5007.00
             3366.59,4936.65 3395.07,4869.88 3429.69,4806.00
             3499.65,4676.95 3589.08,4562.75 3675.88,4445.00
             3724.83,4378.61 3773.11,4311.14 3814.99,4240.00
             3833.40,4208.72 3850.93,4176.68 3866.74,4144.00
             3866.74,4144.00 3889.31,4095.00 3889.31,4095.00
             3905.24,4060.31 3922.06,4024.31 3926.72,3986.00
             3931.03,3950.52 3921.13,3917.28 3893.00,3893.75
             3883.84,3886.09 3875.30,3880.72 3864.00,3876.70
             3850.54,3871.91 3838.97,3871.84 3825.00,3872.00
             3814.77,3872.12 3801.00,3875.13 3791.00,3877.63
             3762.42,3884.77 3735.29,3896.88 3708.00,3907.80
             3674.79,3921.08 3645.87,3930.18 3614.00,3947.86
             3545.47,3985.88 3493.34,4042.59 3459.26,4113.00
             3428.61,4176.32 3412.17,4245.78 3401.42,4315.00
             3401.42,4315.00 3391.72,4389.00 3391.72,4389.00
             3386.93,4425.39 3381.74,4462.00 3374.55,4498.00
             3358.53,4578.23 3336.50,4657.11 3300.74,4731.00
             3263.05,4808.87 3210.32,4880.92 3147.00,4939.91
             3064.47,5016.80 2965.60,5083.93 2854.00,5108.58
             2819.44,5116.21 2788.25,5118.41 2753.00,5118.00
             2753.00,5118.00 2743.00,5117.09 2743.00,5117.09
             2726.05,5115.93 2709.71,5114.14 2693.00,5110.80
             2593.49,5090.90 2509.97,5035.97 2439.00,4965.00
             2393.50,4919.50 2354.08,4868.08 2319.31,4814.00
             2259.43,4720.87 2216.17,4625.48 2196.42,4516.00
             2192.06,4491.80 2189.59,4467.47 2187.91,4443.00
             2187.91,4443.00 2187.00,4431.00 2187.00,4431.00
             2187.00,4431.00 2187.00,4415.00 2187.00,4415.00
             2187.00,4415.00 2186.09,4402.00 2186.09,4402.00
             2186.09,4402.00 2187.00,4391.00 2187.00,4391.00
             2187.00,4391.00 2187.00,4373.00 2187.00,4373.00
             2187.00,4373.00 2188.83,4350.00 2188.83,4350.00
             2193.08,4306.14 2199.57,4267.37 2212.28,4225.00
             2221.90,4192.93 2233.46,4161.30 2247.78,4131.00
             2293.75,4033.70 2359.44,3949.22 2437.00,3875.04
             2479.49,3834.40 2526.28,3797.75 2573.00,3762.12
             2648.41,3704.59 2727.10,3651.27 2806.00,3598.67
             2806.00,3598.67 2970.00,3488.34 2970.00,3488.34
             2970.00,3488.34 3115.00,3384.15 3115.00,3384.15
             3166.34,3346.70 3217.96,3309.04 3263.00,3264.00
             3302.18,3224.82 3343.91,3169.11 3344.00,3111.00
             3344.02,3098.06 3343.12,3086.65 3340.12,3074.00
             3329.50,3029.30 3295.55,2980.83 3259.00,2953.63
             3235.90,2936.44 3210.88,2926.26 3182.00,2924.96
             3182.00,2924.96 3173.00,2924.32 3173.00,2924.32
             3161.20,2925.21 3149.63,2925.86 3138.00,2928.42
             3058.56,2945.94 2978.62,3009.33 2912.00,3054.66
             2912.00,3054.66 2864.00,3085.94 2864.00,3085.94
             2864.00,3085.94 2811.00,3119.02 2811.00,3119.02
             2767.80,3148.80 2723.83,3186.64 2688.09,3225.00
             2641.93,3274.54 2604.37,3323.36 2566.02,3379.00
             2566.02,3379.00 2491.31,3495.00 2491.31,3495.00
             2445.04,3566.83 2398.67,3638.61 2347.37,3707.00
             2275.00,3803.49 2192.16,3900.47 2085.00,3959.30
             2038.28,3984.95 1989.18,4002.48 1936.00,4008.16
             1936.00,4008.16 1915.00,4010.00 1915.00,4010.00
             1876.32,4010.45 1849.02,4009.13 1811.00,4000.12
             1759.85,3987.98 1706.00,3964.47 1663.00,3934.28
             1567.12,3866.97 1494.54,3753.58 1453.58,3645.00
             1437.81,3603.20 1426.51,3562.97 1418.58,3519.00
             1415.06,3499.49 1412.29,3479.77 1410.91,3460.00
             1410.91,3460.00 1410.00,3450.00 1410.00,3450.00
             1410.00,3450.00 1409.00,3431.00 1409.00,3431.00
             1409.00,3431.00 1409.00,3399.00 1409.00,3399.00
             1409.00,3399.00 1410.00,3387.00 1410.00,3387.00
             1410.00,3387.00 1410.00,3379.00 1410.00,3379.00
             1411.53,3357.91 1414.81,3336.68 1419.21,3316.00
             1425.27,3287.54 1440.21,3245.07 1451.58,3218.00
             1490.73,3124.69 1545.12,3045.10 1615.04,2972.00
             1691.75,2891.80 1781.65,2825.89 1874.00,2765.00
             1971.94,2700.42 2085.71,2634.43 2191.00,2582.74
             2191.00,2582.74 2286.00,2536.31 2286.00,2536.31
             2358.21,2503.15 2431.02,2471.28 2505.00,2442.20
             2756.78,2343.25 3011.83,2268.67 3274.00,2203.13
             3274.00,2203.13 3472.00,2154.63 3472.00,2154.63
             3472.00,2154.63 3553.00,2134.13 3553.00,2134.13
             3553.00,2134.13 3590.00,2125.00 3590.00,2125.00
             3585.80,2118.38 3573.82,2104.47 3568.27,2098.00 Z
           M 5848.00,2915.09
           C 5848.00,2915.09 5838.00,2916.00 5838.00,2916.00
             5838.00,2916.00 5812.00,2917.83 5812.00,2917.83
             5782.72,2920.67 5750.56,2924.79 5726.00,2942.43
             5705.42,2957.21 5695.04,2981.01 5695.00,3006.00
             5695.00,3006.00 5695.00,3023.00 5695.00,3023.00
             5695.32,3050.15 5705.65,3079.61 5720.67,3102.00
             5758.58,3158.51 5840.28,3185.35 5904.00,3199.42
             5922.83,3203.58 5949.02,3209.77 5968.00,3210.00
             5968.00,3210.00 5996.00,3210.00 5996.00,3210.00
             6021.51,3209.96 6053.49,3200.47 6074.00,3185.24
             6114.17,3155.42 6116.93,3097.64 6105.63,3053.00
             6102.69,3041.41 6097.21,3028.17 6090.94,3018.00
             6057.57,2963.95 5988.76,2943.63 5931.00,2927.58
             5931.00,2927.58 5900.00,2919.29 5900.00,2919.29
             5892.74,2917.23 5883.35,2914.09 5876.00,2914.14
             5876.00,2914.14 5865.00,2914.14 5865.00,2914.14
             5865.00,2914.14 5848.00,2915.09 5848.00,2915.09 Z
           M 7499.00,5585.00
           C 7499.00,5585.00 7510.00,5597.00 7510.00,5597.00
             7509.05,5585.70 7507.42,5585.03 7499.00,5585.00 Z" />
</svg>
