<svg xmlns="http://www.w3.org/2000/svg" viewBox="0 0 576 512"><defs><style>.fa-secondary{opacity:.4}</style></defs><path d="M562.2 447.88c-21.51-2.4-42.11-10.51-57.91-22.92a38.76 38.76 0 0 0-48.21 0c-37.91 30.43-107.22 30.43-145.73-1.5-13.5-11.21-33-9.11-46.71 1.8-38 30.13-106.91 30-145.22-1.7-13.5-11.21-33.31-8.91-47.11 2-15.5 12.21-36 20.12-57.71 22.42-7.9.8-13.6 7.81-13.6 15.72v32.23c0 9.11 7.6 16.81 16.7 16 28.81-2.5 56.11-11.41 79.42-25.92 56.51 34.63 137 34.13 192 0 56.51 34.63 137 34.13 192 0a184.84 184.84 0 0 0 79.12 25.82c9.1.8 16.7-6.9 16.7-16V464.2c.16-8.01-5.64-15.42-13.74-16.32zM160 128h256v87.53l64 20.57V96a32 32 0 0 0-32-32h-64V24a24 24 0 0 0-24-24H216a24 24 0 0 0-24 24v40h-64a32 32 0 0 0-32 32v140.1l64-20.57z" class="fa-secondary"/><path d="M542.48 289.81a32.13 32.13 0 0 1-7.84 12.83L428.49 405.07c-11.88 6.68-27.69 10.53-44.08 10.53-21.23 0-40.78-6.12-53.63-16.77A64.19 64.19 0 0 0 289.24 384a73.58 73.58 0 0 0-45.49 16.19c-12.37 9.8-31.11 15.42-51.43 15.42-17.1 0-33.09-4-45.36-11.08L41.38 302.64a32 32 0 0 1 12.84-53.09l224-72a31.94 31.94 0 0 1 19.58 0l224 72a32 32 0 0 1 20.68 40.26z" class="fa-primary"/></svg>